<svg xmlns="http://www.w3.org/2000/svg" xmlns:xlink="http://www.w3.org/1999/xlink" viewBox="0 0 48 68.75" version="1.1" x="0px" y="0px"><title>Education- Solid - 029 - Note Taking</title><desc>Created with Sketch.</desc><g stroke="none" stroke-width="1" fill="none" fill-rule="evenodd"><g fill-rule="nonzero" fill="#000000"><path d="M5,42.92 C6.02805686,42.8424826 7.03899549,42.6133365 8,42.24 L8,9.38 C7.02714428,9.69225005 6.01958368,9.88368656 5,9.95 L5,42.92 Z"/><path d="M0,44.38 L0,46.32 C2.582066,47.2699511 5.417934,47.2699511 8,46.32 L8,44.38 C5.39739904,45.2066605 2.60260096,45.2066605 0,44.38 Z"/><path d="M31,47 L31,40 C31.0016037,39.4483809 31.4483809,39.0016037 32,39 L39,39 L39,6 C38.9983963,5.4483809 38.5516191,5.00160371 38,5 L8.62,5 L9.89,7.55 C9.96146812,7.68929089 9.99915066,7.84344674 10,8 L10,47 L31,47 Z M17,10 L36,10 C36.5522847,10 37,10.4477153 37,11 C37,11.5522847 36.5522847,12 36,12 L17,12 C16.4477153,12 16,11.5522847 16,11 C16,10.4477153 16.4477153,10 17,10 Z M17,14 L36,14 C36.5522847,14 37,14.4477153 37,15 C37,15.5522847 36.5522847,16 36,16 L17,16 C16.4477153,16 16,15.5522847 16,15 C16,14.4477153 16.4477153,14 17,14 Z M17,18 L36,18 C36.5522847,18 37,18.4477153 37,19 C37,19.5522847 36.5522847,20 36,20 L17,20 C16.4477153,20 16,19.5522847 16,19 C16,18.4477153 16.4477153,18 17,18 Z M17,22 L36,22 C36.5522847,22 37,22.4477153 37,23 C37,23.5522847 36.5522847,24 36,24 L17,24 C16.4477153,24 16,23.5522847 16,23 C16,22.4477153 16.4477153,22 17,22 Z M12.29,7.29 C12.5760905,7.00154005 13.0082668,6.91483814 13.3834815,7.07062905 C13.7586962,7.22641996 14.0023626,7.59373493 14,8 C13.9983912,8.13064347 13.9711848,8.25970417 13.91992,8.37988 C13.8692187,8.50105794 13.7981981,8.61268878 13.70992,8.70996 C13.3156067,9.09668008 12.6843133,9.09668008 12.29,8.70996 C12.2017219,8.61268878 12.1307013,8.50105794 12.08,8.37988 C12.0237366,8.2613382 11.996323,8.13116483 12,8 C12.0034639,7.73518836 12.1070782,7.48151195 12.29,7.29 L12.29,7.29 Z M12.29,11.29 C12.3842177,11.198888 12.496096,11.1280358 12.61874,11.08181 C12.8645097,10.9892818 13.1355403,10.9892818 13.38131,11.08181 C13.5039278,11.1280586 13.6157854,11.1989084 13.71,11.29 C13.8925356,11.481762 13.9960852,11.7352802 14,12 C13.9983912,12.1306435 13.9711848,12.2597042 13.91992,12.37988 C13.8715567,12.5022646 13.8002818,12.6142952 13.70992,12.70996 C13.3156067,13.0966801 12.6843133,13.0966801 12.29,12.70996 C12.1996382,12.6142952 12.1283633,12.5022646 12.08,12.37988 C12.0237366,12.2613382 11.996323,12.1311648 12,12 C12.0034639,11.7351884 12.1070782,11.481512 12.29,11.29 Z M12.08,15.61959 C12.1307098,15.4985641 12.2017324,15.3870958 12.29,15.29 C12.69095,14.9198817 13.30897,14.9198817 13.70992,15.29 C13.7981876,15.3870958 13.8692102,15.4985641 13.91992,15.61959 C13.9712409,15.739934 13.9984482,15.8691791 14,16 C13.9959931,16.264701 13.8924566,16.5181869 13.71,16.71 C13.6609692,16.7553983 13.6072854,16.795497 13.54984,16.82963 C13.4988509,16.8693413 13.4413582,16.8999046 13.37992,16.91996 C13.3201036,16.9501332 13.2557937,16.9704159 13.18949,16.98002 C13.1269284,16.991501 13.0635803,16.9981805 13,17 C12.9329024,16.9976985 12.8660268,16.9910177 12.7998,16.98 C12.7372879,16.9688776 12.6767463,16.9486421 12.62011,16.91994 C12.5561485,16.89798 12.4953949,16.8676032 12.43945,16.82961 C12.3871796,16.7929065 12.3372648,16.7529579 12.29,16.71 C12.1071571,16.5184369 12.003556,16.2647929 12,16 C11.9962965,15.8686665 12.0237382,15.738322 12.08008,15.61963 L12.08,15.61959 Z M12.01945,19.79977 C12.030745,19.7370802 12.051144,19.6763784 12.08,19.61959 C12.1016932,19.5559105 12.1319148,19.495464 12.16984,19.4399 C12.2067604,19.3875006 12.2468905,19.3374381 12.29,19.29 C12.69095,18.9198817 13.30897,18.9198817 13.70992,19.29 C13.74992,19.3398 13.79,19.38961 13.83004,19.4399 C13.8675862,19.4956859 13.8977818,19.5560806 13.91988,19.61959 C13.9488687,19.6762358 13.9689609,19.737008 13.97945,19.79977 C13.9916311,19.8658582 13.998503,19.9328153 14,20 C13.9983912,20.1306435 13.9711848,20.2597042 13.91992,20.37988 C13.8692187,20.5010579 13.7981981,20.6126888 13.70992,20.70996 C13.3156067,21.0966801 12.6843133,21.0966801 12.29,20.70996 C12.2017219,20.6126888 12.1307013,20.5010579 12.08,20.37988 C12.0237366,20.2613382 11.996323,20.1311648 12,20 C12.0016408,19.932881 12.008168,19.8659707 12.01953,19.7998 L12.01945,19.79977 Z M12.29,23.29 L12.43941,23.16988 C12.4953549,23.1318868 12.5561085,23.10151 12.62007,23.07955 C12.6766487,23.0507848 12.7372389,23.0307094 12.7998,23.02 C12.927918,22.9897156 13.061332,22.9897156 13.18945,23.02 C13.2557795,23.02921 13.3201263,23.0493388 13.37988,23.07957 C13.4413182,23.0996254 13.4988109,23.1301887 13.5498,23.1699 C13.60937,23.2099 13.66015,23.24998 13.70996,23.29002 C14.098161,23.6813729 14.0964583,24.3130667 13.7061531,24.7023211 C13.315848,25.0915756 12.684152,25.0915756 12.2938469,24.7023211 C11.9035417,24.3130667 11.901839,23.6813729 12.29004,23.29002 L12.29,23.29 Z M12.08,27.61959 C12.1307098,27.4985641 12.2017324,27.3870958 12.29,27.29 C12.69095,26.9198817 13.30897,26.9198817 13.70992,27.29 C13.7981876,27.3870958 13.8692102,27.4985641 13.91992,27.61959 C13.9712409,27.739934 13.9984482,27.8691791 14,28 C13.9984895,28.0670098 13.9916311,28.133792 13.97949,28.19971 C13.9690009,28.262472 13.9489087,28.3232442 13.91992,28.37989 C13.89793,28.4435987 13.8677289,28.504169 13.83008,28.56007 C13.79008,28.60987 13.75,28.65968 13.70996,28.70997 C13.3156467,29.0966901 12.6843533,29.0966901 12.29004,28.70997 C12.2471765,28.6623329 12.2070711,28.6122846 12.16992,28.56007 C12.1318918,28.5043909 12.1016646,28.4437681 12.08008,28.37989 C12.051224,28.3231016 12.030825,28.2623998 12.01953,28.19971 C12.0081918,28.1337008 12.0016647,28.0669551 12,28 C11.9962965,27.8686665 12.0237382,27.738322 12.08008,27.61963 L12.08,27.61959 Z M12.01945,31.79977 C12.030745,31.7370802 12.051144,31.6763784 12.08,31.61959 C12.1016932,31.5559105 12.1319148,31.495464 12.16984,31.4399 C12.2067604,31.3875006 12.2468905,31.3374381 12.29,31.29 C12.69095,30.9198817 13.30897,30.9198817 13.70992,31.29 C13.74992,31.3398 13.79,31.38961 13.83004,31.4399 C13.8675862,31.4956859 13.8977818,31.5560806 13.91988,31.61959 C13.9488687,31.6762358 13.9689609,31.737008 13.97945,31.79977 C13.9916311,31.8658582 13.998503,31.9328153 14,32 C13.9983912,32.1306435 13.9711848,32.2597042 13.91992,32.37988 C13.8692187,32.5010579 13.7981981,32.6126888 13.70992,32.70996 C13.3156067,33.0966801 12.6843133,33.0966801 12.29,32.70996 C12.2017219,32.6126888 12.1307013,32.5010579 12.08,32.37988 C12.0237366,32.2613382 11.996323,32.1311648 12,32 C12.0016408,31.932881 12.008168,31.8659707 12.01953,31.7998 L12.01945,31.79977 Z M12.29,35.29 C12.6293315,34.9439667 13.1661,34.8864531 13.5710403,35.1527394 C13.9759805,35.4190256 14.1358576,35.934649 13.9525995,36.3833153 C13.7693415,36.8319816 13.2941934,37.0882285 12.8186212,36.9948688 C12.343049,36.9015091 12.0000386,36.4846493 12,36 C12.0033557,35.7351664 12.1069856,35.4814519 12.29,35.29 L12.29,35.29 Z M12.08,39.61959 C12.1307098,39.4985641 12.2017324,39.3870958 12.29,39.29 C12.69095,38.9198817 13.30897,38.9198817 13.70992,39.29 C13.7981876,39.3870958 13.8692102,39.4985641 13.91992,39.61959 C13.9712409,39.739934 13.9984482,39.8691791 14,40 C13.9984895,40.0670098 13.9916311,40.133792 13.97949,40.19971 C13.9690009,40.262472 13.9489087,40.3232442 13.91992,40.37989 C13.89793,40.4435987 13.8677289,40.504169 13.83008,40.56007 C13.79008,40.60987 13.75,40.65968 13.70996,40.70997 C13.3156467,41.0966901 12.6843533,41.0966901 12.29004,40.70997 C12.2471765,40.6623329 12.2070711,40.6122846 12.16992,40.56007 C12.1318918,40.5043909 12.1016646,40.4437681 12.08008,40.37989 C12.051224,40.3231016 12.030825,40.2623998 12.01953,40.19971 C12.0081918,40.1337008 12.0016647,40.0669551 12,40 C11.9962965,39.8686665 12.0237382,39.738322 12.08008,39.61963 L12.08,39.61959 Z M12.01945,43.79977 C12.030745,43.7370802 12.051144,43.6763784 12.08,43.61959 C12.1016932,43.5559105 12.1319148,43.495464 12.16984,43.4399 C12.2067604,43.3875006 12.2468905,43.3374381 12.29,43.29 C12.69095,42.9198817 13.30897,42.9198817 13.70992,43.29 C13.74992,43.3398 13.79,43.38961 13.83004,43.4399 C13.8675862,43.4956859 13.8977818,43.5560806 13.91988,43.61959 C13.9488687,43.6762358 13.9689609,43.737008 13.97945,43.79977 C13.9916311,43.8658582 13.998503,43.9328153 14,44 C13.9983912,44.1306435 13.9711848,44.2597042 13.91992,44.37988 C13.8692187,44.5010579 13.7981981,44.6126888 13.70992,44.70996 C13.3156067,45.0966801 12.6843133,45.0966801 12.29,44.70996 C12.2017219,44.6126888 12.1307013,44.5010579 12.08,44.37988 C12.0237366,44.2613382 11.996323,44.1311648 12,44 C12.0016408,43.932881 12.008168,43.8659707 12.01953,43.7998 L12.01945,43.79977 Z"/><path d="M47,9 L41,9 L41,40 C41,40.02 40.99,40.04 40.99,40.06 C40.9795782,40.1518696 40.9594456,40.2423755 40.92994,40.33 C40.9244868,40.3613169 40.9144066,40.3916487 40.90003,40.42 C40.8519946,40.5228607 40.7878325,40.6173855 40.70997,40.7 L40.70997,40.71 L32.70997,48.71 C32.6160557,48.8025457 32.503581,48.8741206 32.37997,48.92 C32.2597911,48.9713454 32.1306796,48.998529 32,49 L15,49 L15,54 C15.0016037,54.5516191 15.4483809,54.9983963 16,55 L47,55 C47.5516191,54.9983963 47.9983963,54.5516191 48,54 L48,10 C47.9983963,9.4483809 47.5516191,9.00160371 47,9 Z M18.91992,52.38 C18.8692667,52.5011789 18.7982407,52.6127913 18.70992,52.71 C18.5182463,52.8926222 18.2647172,52.996188 18,53 C17.7348731,52.9980995 17.4806424,52.8942588 17.29,52.71 C17.2016793,52.6127913 17.1306533,52.5011789 17.08,52.38 C16.9732318,52.1379161 16.9732318,51.8620839 17.08,51.62 C17.130673,51.4988314 17.201697,51.3872223 17.29,51.29 C17.6910083,50.9200308 18.3089117,50.9200308 18.70992,51.29 C18.798223,51.3872223 18.869247,51.4988314 18.91992,51.62 C19.0266882,51.8620839 19.0266882,52.1379161 18.91992,52.38 L18.91992,52.38 Z"/><path d="M5.38,3 L4,0.24 L2.62,3 C3.53728397,3.09997488 4.46271603,3.09997488 5.38,3 L5.38,3 Z"/><polygon points="37.59 41 33 41 33 45.59"/><path d="M7.58008,7.41 L6.31008,4.86 C5.54766545,4.99856583 4.77486451,5.07216337 4,5.08 C3.22514217,5.07216224 2.45234797,4.9985647 1.68994,4.86 L0.41994,7.41 C2.74929618,8.14998673 5.25072382,8.14998673 7.58008,7.41 L7.58008,7.41 Z"/><path d="M0,48.46 L0,52 C0.00484937125,53.6548414 1.34515859,54.9951506 3,55 L5,55 C6.65484141,54.9951506 7.99515063,53.6548414 8,52 L8,48.46 C5.39739894,49.2866598 2.60260106,49.2866598 0,48.46 Z"/><path d="M3,9.95 C1.98041632,9.88368656 0.972855721,9.69225005 8.8817842e-16,9.38 L8.8817842e-16,42.24 C0.961004515,42.6133365 1.97194314,42.8424826 3,42.92 L3,9.95 Z"/></g></g><text x="0" y="70" fill="#000000" font-size="5px" font-weight="bold" font-family="'Helvetica Neue', Helvetica, Arial-Unicode, Arial, Sans-serif">Created by Creaticca Creative Agency</text><text x="0" y="75" fill="#000000" font-size="5px" font-weight="bold" font-family="'Helvetica Neue', Helvetica, Arial-Unicode, Arial, Sans-serif">from the Noun Project</text></svg>